<svg xmlns="http://www.w3.org/2000/svg" width="1600.003" height="1600.003" fill-rule="evenodd" clip-rule="evenodd" image-rendering="optimizeQuality" shape-rendering="geometricPrecision" text-rendering="geometricPrecision" viewBox="0 0 16666.66 16666.66"><rect width="16666.66" height="16666.66" fill="none"/><path fill="#268ccb" fill-rule="nonzero" d="M9123.93 4767.4c1251.82,1604.67 926.42,1281.81 1157.83,1485.87 231.21,204.09 1754.63,1088.17 1754.63,1088.17l-163.22 761.76c0,0 -1863.46,-1061.05 -2094.67,-1251.46 -231.21,-190.41 -1122.17,-1156.1 -1122.17,-1156.1l467.61 -928.24z"/><path fill="#2674b9" fill-rule="nonzero" d="M11873.16 8103.2c0,0 -36.86,-21.06 -100.84,-57.62 -391.02,-223.62 -1795.11,-1030.19 -1993.83,-1193.84 -111.34,-91.62 -375.67,-363.08 -619.82,-619.95 -0.39,-87.06 -1.46,-161.66 -3.39,-219.97 -5.51,-164.98 -10.07,-315.85 -13.85,-451.05 23.53,24.7 45.99,50.13 66.65,76.56 184.37,235.48 399.32,451.54 616.55,657 124.24,117.5 258.13,218.8 399,303.89 233.79,163.71 489.7,300.08 750.25,440.26 53.94,28.97 106.91,41.62 156.9,41.62 62.61,0 120.69,-19.91 170.43,-52.57 241.87,119.13 488.66,227.56 733.43,321.85l-161.5 753.8z"/><path fill="#2c2a43" fill-rule="nonzero" d="M8835.16 13636.5c0 0-77.86 227.3-78.58 402.98-.81 175.71 11.89 362.43 65.8 406.59 107.69 88.17 1470.42 99.57 1581.33-26.24 110.88-125.91 36.99-329.64-251.61-400.01-309.47-75.55-352.69-43.35-547.43-117.27-194.74-74.05-147.68-292.85-147.68-292.85l-621.84 26.79zM5845.95 13380.55c0 0-153.74 184.54-217.07 348.48-63.33 163.87-117.99 342.87-83.41 403.24 69.23 120.85 1338.45 617.21 1486.88 539.15 148.49-78.19 152.04-294.8-92.56-463.47-262.24-180.89-314.1-166.16-469.66-304.58-155.63-138.55-33.61-326.32-33.61-326.32l-590.58-196.5z"/><path fill="#f1666e" fill-rule="nonzero" d="M8826.36 7844.71l-1836.21 204c0,0 1642.09,2625.08 1766.36,3046.83 124.24,421.65 -45.76,2713.54 -45.76,2713.54l831.41 0c0,0 178.48,-2706.76 137.7,-2910.83 -40.78,-204 -853.51,-3053.55 -853.51,-3053.55z"/><path fill="#f1666e" fill-rule="nonzero" d="M8756.51 7980.75l-2096.2 0c0,0 -244.84,642.6 -132.65,1132.3 112.25,489.7 187.02,1530.16 176.81,1713.79 -10.17,183.63 -1033.68,2631.9 -1033.68,2631.9l763.26 283.88c0,0 1052.52,-2334.32 1154.57,-2599.46 102.02,-265.28 1167.89,-3162.41 1167.89,-3162.41z"/><path fill="#fbcdc2" fill-rule="nonzero" d="M8667.77 3644.06c-171.11,11.47 -347.37,-6 -506.13,-40.02 -58.11,-12.55 -116.78,-33.34 -171.96,-60.49 -17.83,210.65 -77.08,702.18 -251.42,887.2 0,0 23.79,248.23 459.04,309.41 435.28,61.18 525.2,-261.82 525.2,-261.82 0,0 -84.09,-523.96 -54.72,-834.28z"/><path fill="#e7a192" fill-rule="nonzero" d="M7739.59 4438.67l4.56 17.93 0.78 2.31 10.36 27.12 0.56 1.27c4.69,10.23 10.89,21.74 18.35,33.7l3.16 4.95c16,24.61 38.85,51.72 70.59,78.42l5.25 4.47c16,13 34.42,25.88 55.15,38.3l8.41 4.72c21.87,12.42 45.76,24.48 73.3,35.53 27.34,-108.89 82.78,-211.69 166.81,-293.66 148.72,-145.23 330.62,-217.43 526.44,-224.33 -16.95,-168.21 -30.02,-372.54 -15.55,-525.33 -171.11,11.47 -347.37,-6 -506.13,-40.02 -58.11,-12.55 -116.78,-33.34 -171.96,-60.49 -17.83,210.65 -77.08,702.18 -251.42,887.2l0.85 5.28 0.49 2.64z"/><path fill="#fbcdc2" fill-rule="nonzero" d="M7961.16 2391.09c0,0 729.16,-179.49 835.74,0 106.58,179.49 72.91,460.05 114.99,586.18 42.08,126.23 214.56,265.01 231.34,315.5 16.85,50.48 -126.2,138.78 -147.22,176.72 -21.02,37.84 -112.19,441.76 -241.18,525.82 -129,84.15 -788,-185.13 -939.42,-509.03 -151.46,-323.88 -52.02,-999.75 145.76,-1095.18z"/><path fill="#268ccb" fill-rule="nonzero" d="M8722.42 4404.87c0,0 -511.9,254.22 -927.42,-51.3 0,0 -791.19,138.45 -888.31,177.89 -80.47,32.66 131.09,1159.1 39.27,1725.26 -91.81,566.17 -459.07,1938.22 -459.07,1938.22 0,0 969.11,744.71 2631.93,275.51 0,0 54.2,-1923.98 36.47,-2458.63 -25.98,-781.96 -31.35,-1244.42 -31.35,-1244.42 0,0 -190.15,-195.23 -401.51,-362.53z"/><path fill="#5d94c2" fill-rule="nonzero" d="M6945.96 6256.72c0.13,-0.78 0.23,-1.59 0.36,-2.41 -0.13,0.81 -0.23,1.63 -0.36,2.41zm0.39 -2.74c0.13,-0.81 0.29,-1.63 0.42,-2.44 -0.13,0.81 -0.29,1.63 -0.42,2.44zm0.42 -2.54c0.13,-0.81 0.2,-1.5 0.36,-2.18 -0.16,0.68 -0.23,1.37 -0.36,2.18zm0.46 -2.64c0.07,-0.81 0.2,-1.5 0.3,-2.31 -0.1,0.81 -0.23,1.5 -0.3,2.31zm0.43 -2.87c0.09,-0.59 0.19,-1.27 0.26,-1.86 -0.07,0.59 -0.17,1.27 -0.26,1.86zm0.36 -2.31c0.1,-0.69 0.19,-1.37 0.26,-2.18 -0.07,0.81 -0.16,1.37 -0.26,2.18zm0.46 -3.09c0.03,-0.46 0.13,-0.81 0.19,-1.27 -0.06,0.46 -0.16,0.81 -0.19,1.27zm0.39 -2.77c0.07,-0.46 0.16,-0.81 0.2,-1.37 -0.04,0.46 -0.13,0.91 -0.2,1.37zm0.36 -2.51c0.07,-0.36 0.1,-0.72 0.13,-0.94 -0.03,0.36 -0.06,0.59 -0.13,0.94zm0.46 -3.13c0.03,-0.23 0.1,-0.56 0.13,-0.78 -0.03,0.23 -0.1,0.46 -0.13,0.78zm0.33 -2.19c0.03,-0.23 0.03,-0.46 0.1,-0.69 -0.07,0.23 -0.07,0.46 -0.1,0.69z"/><path fill="#2674b9" fill-rule="nonzero" d="M8048.14 8623.71c-997.4,0 -1559.01,-427.03 -1561.26,-428.76l0 0c0,0 367.25,-1372.05 459.07,-1938.22l0 0c0.13,-0.78 0.23,-1.59 0.36,-2.41 0.04,-0.1 0.04,-0.23 0.04,-0.33 0.13,-0.81 0.29,-1.63 0.42,-2.44 0,-0.1 0,-0.1 0,-0.1 0.13,-0.81 0.2,-1.5 0.36,-2.18 0.03,-0.23 0.03,-0.36 0.1,-0.46 0.07,-0.81 0.2,-1.5 0.3,-2.31 0.03,-0.1 0.09,-0.33 0.13,-0.56 0.09,-0.59 0.19,-1.27 0.26,-1.86 0,-0.1 0.06,-0.33 0.1,-0.46 0.1,-0.81 0.19,-1.37 0.26,-2.18 0.1,-0.23 0.16,-0.59 0.2,-0.91 0.03,-0.46 0.13,-0.81 0.19,-1.27 0.07,-0.46 0.1,-0.91 0.2,-1.5 0.07,-0.46 0.16,-0.91 0.2,-1.37 0.09,-0.36 0.13,-0.81 0.16,-1.14 0.07,-0.36 0.1,-0.59 0.13,-0.94 0.17,-0.69 0.26,-1.5 0.33,-2.19 0.03,-0.33 0.1,-0.56 0.13,-0.78 0.07,-0.49 0.13,-0.94 0.2,-1.4 0.03,-0.23 0.03,-0.46 0.1,-0.69 62.51,-442.9 -43.94,-1191.65 -59.71,-1526.48 238.19,200.41 275.48,446.72 323.26,809.25 44.69,338.83 283.56,777.82 227.04,1111.05 -52.15,307.58 -1.4,597.88 71.06,895.22 120.13,493.39 250.21,843.14 679.26,1102.55 -48.59,1.96 -96.11,2.87 -142.85,2.87z"/><polygon fill="#b0ddd3" fill-rule="nonzero" points="4059.02 8103.07 5262.77 11340.34 12607.64 8769.62 11437.89 5573.29"/><polygon fill="#fefefe" fill-rule="nonzero" points="4726.78 8430.43 5559.85 10754.62 12010.87 8456.77 11159.02 6143.92"/><path fill="#b0ddd3" fill-rule="nonzero" d="M11087.64 7649.15c0 222.57-180.4 402.98-402.98 402.98-222.54 0-402.91-180.4-402.91-402.98 0-222.51 180.37-402.91 402.91-402.91 222.58 0 402.98 180.4 402.98 402.91zM6364.5 9221.49c0 222.48-180.43 403.01-402.98 403.01-222.54 0-402.98-180.53-402.98-403.01 0-222.48 180.43-402.88 402.98-402.88 222.54 0 402.98 180.4 402.98 402.88zM9371.57 8446.18c-24.25 553.85-492.83 983.09-1046.62 958.81-553.85-24.25-983.13-492.8-958.88-1046.65 24.25-553.75 492.83-983.09 1046.68-958.81 553.78 24.25 983.06 492.9 958.81 1046.65z"/><path fill="#fefefe" fill-rule="nonzero" d="M9187.26 8438.12c-19.82,452 -402.26,802.33 -854.29,782.55 -451.96,-19.75 -802.37,-402.19 -782.55,-854.19 19.78,-452.09 402.23,-802.44 854.26,-782.65 452,19.88 802.4,402.32 782.59,854.29z"/><path fill="#b0ddd3" fill-rule="nonzero" d="M8289.82 7976.71c166.45,-43.57 338.28,-25.16 395.06,136.73l-269.93 94.52c-22.85,-60.72 -90.19,-51.86 -129.62,-38.07 -24.77,8.74 -104.95,36.8 -87.61,86.34 38.79,110.85 495.9,-178.67 605.7,135 65.94,188.09 -56.81,309.76 -233.1,386.22l81.65 195.81 -164.79 57.69 -60.36 -204.88c-173.85,41.26 -357.51,17.24 -416.8,-152.01l269.9 -94.52 2.02 5.87c27.48,73.82 115.74,59.35 158.04,44.52 40.87,-14.37 120.1,-45.3 101.13,-99.34 -40.38,-115.22 -500.98,164.07 -607.27,-139.27 -61.27,-175.09 50.88,-289.85 213.52,-363.08l-80.7 -197.78 164.82 -57.72 58.34 203.96z"/><path fill="#2c2a43" fill-rule="nonzero" d="M8274.69 2494.02c0,0 13.79,177.53 -92.79,368.27 -47.03,84.06 157.36,322.76 92.79,423.93 -43.02,67.5 -100.45,47.26 -147.06,-91.98 -15.94,-47.62 -65.96,-82.46 -111.69,-104.76 -172.61,-84.15 -225.93,182.26 -71.64,269.18 107.98,60.92 29.4,337.69 29.4,337.69 -122.84,85.88 -510.01,-42.21 -453.92,-326.55 35.69,-181.08 50.98,-249.98 -10.85,-297.34 -111.96,-85.78 -252.2,-315.72 -53.26,-496.26 274.11,-248.72 38.76,-342.52 345.45,-403.79 306.6,-61.41 548.7,135.19 473.57,321.59z"/><path fill="#2c2a43" fill-rule="nonzero" d="M7745 2316.13c20.08,-65.31 143.61,-145.1 204.81,-186.5 94.42,-63.91 202.27,-102.08 316.8,-125.78 113.46,-23.56 233.85,-22.78 346.27,4.14 97.48,23.34 177.96,70.83 278.11,86.8 92.46,14.83 185.22,14.96 253.05,-37.12 17.6,62.54 11.54,186.14 1.89,228.21 -20.43,88.88 -83.37,166.52 -140.77,244.22 -155.86,211.1 -558.44,313.44 -833.07,185.58 -132.72,-61.86 -251.87,-115.44 -312.85,-236.04 -35.07,-69.45 -62.65,-103.48 -114.24,-163.52z"/><path fill="#fbcdc2" fill-rule="nonzero" d="M12395.95 7881.28c153.25-79.43 186.01-299.07 153.15-444.04-26.5-117.04-143.61-144.52-313.8-191-115.12-31.48-224.43-56.09-265.6-31.61-127.18 120.85 262.73 194.91 357.41 235.61 0 0-402.98-127.54-451.44-61.18-86.7 124.96 295.59 188.22 387.92 220.65-85.88-41.52-252.72-74.18-280.85-60.36-73.92-12.32-69.52 46.44-63.69 61.6 29.59 76.92 341.7 132.59 341.7 132.59-55.28-9.87-251.58-89.24-226.09 7.59 16.62 63.23 104.46 82.33 149.6 102.08 87.02 38.07 177.11 46.02 211.69 28.06zM7338.96 7501.86c143.93-5.87 318.92 21.48 467.28 21.48 67.66 0 137.64-9.88 204.71-13.92 42.44-2.41 128.71-16.79 153.51 30.6 27.19 51.95-57.85 70.46-91.39 77.83-48.53 10.59-148.85 3.91-157.98 68.77-13.3 94.26 163.09 119.45 231.83 149.57 63.85 27.96 232.91 87.51 122.09 149.96-74.7 41.95-231.83-53.94-295.45-79.59 83.57 23.11 156.41 53.35 231.28 96.37 43.28 24.84 128.45 59.09 128.45 107.85 0 71.38-157.91 28.62-196.89 11.7-92.95-40.35-111.53-50.81-175.77-97.13 66.36 35.04 309.8 138.29 230.17 222.57-48.76 51.53-238.97-93.34-314.78-124.18 41.69 38.52 166.48 58.76 156.35 140.05-5.11 40.81-75.74 8.28-109.67-10.23-47.75-25.98-90.38-63.92-138.39-86.7-37.58-17.83-62.54-39.99-103.19-68.87-86.11-61.28-164.2-75.87-238.77-155.7-69.65-74.6-134.74-150.02-207.03-211.56 138.52-51.27-2.57-154.52 103.65-228.9z"/><path fill="#268ccb" fill-rule="nonzero" d="M7549.6 7463.89l-204.16 471.56c0,0 -2106.66,-683.44 -2007.91,-1236.6 86.73,-485.57 1312.57,-2112.53 1579.57,-2170.94 358.91,-78.55 502.68,776.78 296.53,984.11 -434.72,437.26 -1054.9,1052.19 -1003.89,1151.17 51.01,99.11 1339.85,800.7 1339.85,800.7z"/></svg>